<svg xmlns="http://www.w3.org/2000/svg"><metadata/><defs><font id="function_prodemi" horiz-adv-x="567"><font-face ascent="753" descent="-247" units-per-em="1000"/><glyph d="M62 0v328h-47v105h47v139q0 86 40 132q52 57 128 57q32 0 64 -15v-110q-35 16 -55 16q-15 0 -29 -8.5t-19 -21.5q-8 -19 -8 -68v-121h111v-105h-111v-328h-121zM402 543q-30 0 -51.5 21.5t-21.5 52.5q0 29 21.5 50.5t51.5 21.5t51.5 -21.5t21.5 -51.5t-21.5 -51.5 t-51.5 -21.5zM341 0v433h121v-433h-121z" horiz-adv-x="518" unicode="ﬁ"/><glyph d="M62 0v328h-47v105h47v139q0 85 40 131q52 57 129 57q30 0 63 -14v-110q-34 15 -55 15q-15 0 -29 -8.5t-19 -21.5q-8 -17 -8 -67v-121h111v-105h-111v-328h-121zM341 0v749h121v-749h-121z" horiz-adv-x="521" unicode="ﬂ"/><glyph horiz-adv-x="0"/><glyph horiz-adv-x="333"/><glyph horiz-adv-x="250"/><glyph horiz-adv-x="250"/><glyph horiz-adv-x="250"/><glyph d="M63 191v476h125v-476h-125zM47 66q0 32 23 55t55 23q33 0 56 -23t23 -55q0 -33 -23 -56t-55 -23q-33 0 -56 23t-23 56z" horiz-adv-x="250" unicode="!"/><glyph d="M245 392l-18 275h126l-19 -275h-89zM59 392l-19 275h126l-19 -275h-88z" horiz-adv-x="393" unicode="&quot;"/><glyph d="M83 3l25 193h-96v93h108l13 102h-97v94h109l23 192l94 -13l-22 -179h105l24 192l94 -13l-23 -179h94v-94h-104l-13 -102h93v-94h-105l-25 -205l-94 13l24 192h-106l-26 -205zM216 289h105l12 102h-105z" horiz-adv-x="545" unicode="#"/><glyph d="M47 120l74 76q65 -88 150 -88q42 0 70.5 25.5t28.5 62.5q0 32 -19.5 51t-73.5 42q-94 40 -124 64q-58 45 -58 126q0 47 22.5 89t60.5 67q32 22 84 30v96h62v-96q90 -10 154 -75l-66 -84q-48 54 -108 54q-35 0 -59.5 -20.5t-24.5 -48.5q0 -32 38 -58q13 -9 71 -32 q83 -34 120 -68q51 -46 51 -125q0 -78 -46.5 -132t-129.5 -74v-101h-62v97q-137 6 -215 122z" unicode="$"/><glyph d="M162 3l397 686l53 -30l-397 -687zM198 359q-73 0 -120.5 45t-47.5 115q0 67 48.5 111.5t121.5 44.5t121 -44.5t48 -112.5q0 -69 -48.5 -114t-122.5 -45zM200 430q35 0 60.5 25.5t25.5 61.5q0 35 -25.5 60.5t-61.5 25.5q-35 0 -60.5 -25t-25.5 -60q0 -37 25.5 -62.5 t61.5 -25.5zM407 150q0 66 48.5 110.5t121.5 44.5q72 0 120 -45t48 -112q0 -68 -48.5 -113t-121.5 -45t-120.5 45t-47.5 115zM490 149q0 -37 25 -62.5t61 -25.5q35 0 60.5 25.5t25.5 61.5q0 35 -25.5 60.5t-60.5 25.5t-60.5 -25t-25.5 -60z" horiz-adv-x="775" unicode="%"/><glyph d="M542 0l-66 75q-110 -90 -213 -90q-91 0 -150.5 54t-59.5 137q0 70 41.5 116.5t117.5 84.5q-37 41 -52.5 73t-15.5 67q0 72 51.5 118.5t131.5 46.5q77 0 129 -46t52 -115q0 -92 -122 -163l110 -126q53 53 82 92l77 -75q-27 -36 -87 -96l135 -153h-161zM324 427 q43 29 59.5 49.5t16.5 46.5q0 29 -19 47.5t-49 18.5q-28 0 -47 -18t-19 -45q0 -20 10 -37t48 -62zM404 157l-126 145q-54 -35 -74 -59t-20 -51q0 -37 29.5 -64.5t69.5 -27.5q51 0 121 57z" horiz-adv-x="710" unicode="&amp;"/><glyph d="M59 392l-19 275h126l-19 -275h-88z" horiz-adv-x="206" unicode="'"/><glyph d="M263 -117l-97 -53q-43 82 -63 170q-36 150 -36 303q0 274 99 463l97 -53q-81 -174 -81 -414q0 -117 21.5 -228t59.5 -188z" horiz-adv-x="319" unicode="("/><glyph d="M57 -117q81 174 81 414q0 117 -21.5 228t-59.5 188l97 53q43 -82 63 -170q36 -150 36 -303q0 -274 -99 -463z" horiz-adv-x="319" unicode=")"/><glyph d="M225 429l-75 54l92 90l-127 20l29 88l114 -59l-21 127h92l-21 -127l114 59l29 -88l-127 -19l91 -90l-74 -55l-58 115z" unicode="*"/><glyph d="M243 110v183h-183v80h183v184h80v-184h184v-80h-184v-183h-80z" unicode="+"/><glyph d="M4 -131l107 269l111 -13l-141 -265z" horiz-adv-x="250" unicode=","/><glyph d="M0 179v101h225v-101h-225z" horiz-adv-x="225" unicode="-"/><glyph d="M47 66q0 32 23 55t55 23q33 0 56 -23t23 -55q0 -33 -23 -56t-55 -23q-33 0 -56 23t-23 56z" horiz-adv-x="250" unicode="."/><glyph d="M-29 -137l377 903l84 -33l-378 -903z" horiz-adv-x="465" unicode="/"/><glyph d="M94 85q-69 97 -69 254q0 149 69 243q75 102 190 102q113 0 189 -102q69 -93 69 -248q0 -154 -69 -249q-34 -48 -84.5 -75t-104.5 -27q-55 0 -105 26.5t-85 75.5zM284 98q56 0 92 66.5t36 169.5t-36 169t-92 66t-92.5 -65.5t-36.5 -166.5q0 -106 36 -172.5t93 -66.5z" unicode="0"/><glyph d="M227 0v554h-96v113h226v-667h-130z" unicode="1"/><glyph d="M17 0l197 223q91 103 122 153t31 92q0 43 -29.5 72t-72.5 29q-44 0 -70.5 -29t-27.5 -81h-139q7 104 70 164.5t164 60.5t168 -61.5t67 -153.5q0 -105 -121 -233l-116 -123h242v-113h-485z" unicode="2"/><glyph d="M174 493h-123q28 191 221 191q92 0 148 -51t56 -134q0 -50 -18 -83t-59 -59q42 -17 62 -42q40 -48 40 -120q0 -94 -66 -153t-172 -59q-142 0 -210 113q-28 46 -29 96h130q6 -44 35 -69t75 -25t76.5 30t30.5 75t-29.5 75.5t-73.5 30.5q-5 0 -25 -2v93h18q42 0 67 25t25 67 q0 38 -25 63t-65 25q-78 0 -89 -87z" unicode="3"/><glyph d="M21 118v58l330 503h117v-457h79v-104h-79v-118h-121v118h-326zM175 222h172v265z" unicode="4"/><glyph d="M26 70l43 113q73 -85 167 -85q56 0 95 37.5t39 90.5q0 56 -44 95t-108 39q-67 0 -128 -43h-7l79 350h308v-113h-220l-26 -104q31 4 49 4q98 0 162.5 -66t64.5 -166q0 -106 -73 -172.5t-188 -66.5q-126 0 -213 87z" unicode="5"/><glyph d="M409 625l-158 -203q42 17 78 17q87 0 147 -64t60 -156q0 -104 -71 -170t-183 -66q-110 0 -181 64.5t-71 164.5q0 97 84 211l203 271zM160 211q0 -53 36 -89t88 -36q50 0 86 36t36 87q0 53 -35 89.5t-87 36.5t-88 -36.5t-36 -87.5z" unicode="6"/><glyph d="M50 43l305 511h-309v113h514l-405 -686z" unicode="7"/><glyph d="M52 182q0 79 50 126q22 22 69 41q-96 48 -96 147q0 82 60 135t152 53q91 0 149 -53t58 -136q0 -98 -99 -146q120 -47 120 -165q0 -88 -64.5 -144.5t-164.5 -56.5q-101 0 -167.5 56.5t-66.5 142.5zM285 402q38 0 65 27.5t27 65.5q0 39 -27.5 66.5t-65.5 27.5 q-37 0 -64.5 -27.5t-27.5 -65.5q0 -39 27 -66.5t66 -27.5zM182 192q0 -44 29.5 -75t72.5 -31q41 0 71 31t30 74q0 44 -29.5 74t-72.5 30q-41 0 -71 -30.5t-30 -72.5z" unicode="8"/><glyph d="M158 42l157 202q-43 -16 -78 -16q-87 0 -147 64t-60 157q0 103 71.5 169t183.5 66q110 0 180.5 -64t70.5 -164q0 -98 -84 -212l-202 -272zM284 332q51 0 86.5 36.5t35.5 88.5t-35.5 88t-87.5 36q-50 0 -86.5 -36.5t-36.5 -86.5q0 -53 36 -89.5t88 -36.5z" unicode="9"/><glyph d="M126 291q-33 0 -56 23t-23 56q0 32 23 55t55 23q33 0 56 -23t23 -55q0 -33 -23 -56t-55 -23zM47 66q0 32 23 55t55 23q33 0 56 -23t23 -55q0 -33 -23 -56t-55 -23q-33 0 -56 23t-23 56z" horiz-adv-x="250" unicode=":"/><glyph d="M157 290q-33 0 -56 23t-23 56q0 32 23 55t55 23q33 0 56 -23t23 -55q0 -33 -23 -56t-55 -23zM-2 -131l107 269l111 -13l-141 -265z" horiz-adv-x="250" unicode=";"/><glyph d="M33 280v109l433 220v-128l-296 -147l296 -148v-128z" horiz-adv-x="500" unicode="&lt;"/><glyph d="M60 369v80h447v-80h-447zM60 217v80h447v-80h-447z" unicode="="/><glyph d="M33 58v129l296 147l-296 147v128l433 -221v-109z" horiz-adv-x="500" unicode="&gt;"/><glyph d="M160 223v176q23 -4 35 -4q55 0 90 28t35 72q0 33 -22 55t-55 22q-30 0 -50.5 -20.5t-20.5 -50.5q0 -7 1 -12h-129q-1 6 -1 13q0 74 59.5 126t144.5 52q84 0 142.5 -54.5t58.5 -133.5q0 -68 -43.5 -116.5t-121.5 -67.5v-85h-123zM145 66q0 32 23 55t55 23q33 0 56 -23 t23 -55q0 -33 -23 -56t-55 -23q-33 0 -56 23t-23 56z" horiz-adv-x="489" unicode="?"/><glyph d="M626 119l29 -73q-70 -34 -124 -47.5t-124 -13.5q-115 0 -198 47q-80 46 -126.5 126.5t-46.5 174.5q0 148 104 248.5t257 100.5q141 0 236 -87t95 -216q0 -99 -53 -172t-124 -73q-56 0 -77 51q-49 -53 -114 -53q-71 0 -118 53.5t-47 134.5q0 84 52 140t130 56 q74 0 108 -42l4 34h84l-27 -227q-3 -24 -3 -46q0 -26 17 -26q35 0 64 52t29 114q0 103 -72 169t-183 66q-116 0 -195.5 -80t-79.5 -196q0 -75 35.5 -138.5t96.5 -98.5q61 -36 152 -36q57 0 101.5 10.5t101.5 39.5zM365 218q43 0 76 37t33 85q0 38 -25.5 63.5t-65.5 25.5 q-41 0 -67.5 -32t-26.5 -81q0 -43 21.5 -70.5t54.5 -27.5z" horiz-adv-x="764" unicode="@"/><glyph d="M1 0l289 681h98l280 -681h-139l-57 141h-273l-60 -141h-138zM241 246h190l-93 240z" horiz-adv-x="670" unicode="A"/><glyph d="M77 0v667h165q113 0 163 -40q60 -47 60 -136q0 -57 -25 -95q-12 -18 -48 -40q58 -13 87 -42q48 -48 48 -126q0 -83 -59 -137q-57 -51 -166 -51h-225zM207 389h37q101 0 101 87q0 86 -99 86h-39v-173zM207 105h56q62 0 91 18q39 23 39 74t-39 74q-29 19 -98 19h-49v-185z" horiz-adv-x="570" unicode="B"/><glyph d="M558 177v-153q-82 -39 -163 -39q-147 0 -249.5 100t-102.5 245q0 146 103 249t249 103q81 0 163 -41v-153q-76 75 -163 75q-92 0 -155 -67t-63 -165q0 -97 63 -162t158 -65q86 0 160 73z" horiz-adv-x="602" unicode="C"/><glyph d="M77 0v667h191q146 0 239 -77q56 -46 87.5 -113.5t31.5 -142.5q0 -74 -32 -142t-89 -115q-93 -77 -238 -77h-190zM207 113h35q119 0 178 53q34 30 53 75t19 93q0 102 -72 166q-60 54 -178 54h-35v-441z" horiz-adv-x="669" unicode="D"/><glyph d="M77 0v667h369v-113h-239v-148h230v-113h-230v-180h239v-113h-369z" horiz-adv-x="495" unicode="E"/><glyph d="M77 0v667h353v-113h-223v-148h209v-113h-209v-293h-130z" horiz-adv-x="467" unicode="F"/><glyph d="M413 357h305q-1 -129 -35 -198q-42 -84 -116.5 -129t-173.5 -45q-151 0 -250.5 98t-99.5 247q0 152 100 252t254 100q190 0 286 -157l-114 -61q-61 99 -173 99q-94 0 -156.5 -66.5t-62.5 -166.5q0 -98 62 -162.5t156 -64.5q71 0 119.5 38.5t55.5 102.5h-157v113z" horiz-adv-x="762" unicode="G"/><glyph d="M77 0v667h130v-258h282v258h130v-667h-130v296h-282v-296h-130z" horiz-adv-x="695" unicode="H"/><glyph d="M77 0v667h130v-667h-130z" horiz-adv-x="283" unicode="I"/><glyph d="M-27 47l78 95q26 -38 65 -38q44 0 58 40q9 24 9 94v429h130v-450q0 -131 -59 -187q-51 -46 -125 -46q-89 0 -156 63z" horiz-adv-x="390" unicode="J"/><glyph d="M77 0v667h130v-282l245 282h164l-282 -308l297 -359h-171l-237 300l-16 -16v-284h-130z" horiz-adv-x="637" unicode="K"/><glyph d="M77 0v667h130v-554h205v-113h-335z" horiz-adv-x="425" unicode="L"/><glyph d="M41 0l124 679h89l182 -436l189 436h90l111 -679h-131l-60 411l-183 -420h-36l-177 420l-67 -411h-131z" horiz-adv-x="868" unicode="M"/><glyph d="M77 0v682h90l406 -464v449h130v-680h-90l-406 464v-451h-130z" horiz-adv-x="779" unicode="N"/><glyph d="M43 338q0 143 105 243.5t253 100.5q149 0 252 -101t103 -248t-104 -247.5t-256 -100.5q-150 0 -251.5 101.5t-101.5 251.5zM177 336q0 -97 65 -164.5t158 -67.5q92 0 157 67.5t65 162.5t-65.5 162t-157.5 67q-91 0 -156.5 -67t-65.5 -160z" horiz-adv-x="799" unicode="O"/><glyph d="M77 0v667h195q65 0 104.5 -11.5t71.5 -39.5q68 -62 68 -161q0 -90 -54 -149q-56 -59 -171 -59h-84v-247h-130zM207 360h53q122 0 122 96q0 51 -34 77q-28 21 -96 21h-45v-194z" horiz-adv-x="535" unicode="P"/><glyph d="M643 -26l-55 61q-84 -50 -184 -50q-153 0 -257 100t-104 248q0 147 104 248t255 101q152 0 255 -101t103 -249q0 -130 -94 -238l108 -107zM500 268l74 -75q52 58 52 140q0 97 -65 163.5t-160 66.5t-159.5 -66.5t-64.5 -165.5q0 -97 63.5 -162t157.5 -65q56 0 96 27 l-129 126z" horiz-adv-x="796" unicode="Q"/><glyph d="M77 0v667h193q114 0 170 -47q66 -55 66 -150t-60 -147q-37 -32 -92 -42l210 -281h-160l-180 268h-17v-268h-130zM207 360h38q62 0 94.5 26.5t32.5 75.5q0 100 -125 100h-40v-202z" horiz-adv-x="575" unicode="R"/><glyph d="M33 111l84 81q47 -89 140 -89q44 0 73.5 27t29.5 67q0 42 -36 67q-15 12 -93 40q-90 32 -127 73t-37 107q0 84 59 139t149 55q111 0 196 -74l-68 -89q-48 54 -108 54q-40 0 -67 -21.5t-27 -52.5q0 -27 21 -44.5t80 -39.5q94 -34 133 -67q59 -50 59 -140q0 -98 -64 -159 t-168 -61q-141 0 -229 127z" horiz-adv-x="532" unicode="S"/><glyph d="M156 0v554h-149v113h429v-113h-150v-554h-130z" horiz-adv-x="443" unicode="T"/><glyph d="M613 667v-408q0 -113 -49 -178q-35 -45 -93 -70.5t-126 -25.5t-126.5 25.5t-92.5 70.5q-49 65 -49 178v408h130v-382q0 -51 4 -74t17 -45q17 -29 48.5 -45.5t68.5 -16.5t68.5 16.5t48.5 45.5q13 22 17 45t4 74v382h130z" horiz-adv-x="689" unicode="U"/><glyph d="M284 -17l-283 684h142l178 -448l180 448h141l-288 -684h-70z" horiz-adv-x="644" unicode="V"/><glyph d="M237 -13l-236 680h137l150 -454l163 460h71l155 -460l160 454h137l-251 -680h-91l-148 436l-156 -436h-91z" horiz-adv-x="976" unicode="W"/><glyph d="M7 0l236 353l-199 314h156l118 -207l123 207h156l-205 -314l227 -353h-153l-150 244l-155 -244h-154z" horiz-adv-x="625" unicode="X"/><glyph d="M225 0v306l-230 361h154l144 -232l141 232h155l-234 -361v-306h-130z" horiz-adv-x="583" unicode="Y"/><glyph d="M21 0l326 554h-275v113h490l-325 -554h307v-113h-523z" horiz-adv-x="584" unicode="Z"/><glyph d="M87 -160v909h207v-107h-90v-695h90v-107h-207z" horiz-adv-x="347" unicode="["/><glyph d="M410 -170l-377 903l84 33l377 -903z" horiz-adv-x="465" unicode="\"/><glyph d="M53 -53h91v695h-91v107h208v-909h-208v107z" horiz-adv-x="347" unicode="]"/><glyph d="M5 334l160 337h171l160 -337h-136l-109 233l-110 -233h-136z" horiz-adv-x="500" unicode="^"/><glyph d="M0 -46h500v-117h-500v117z" horiz-adv-x="500" unicode="_"/><glyph d="M243 509l-150 135l88 56l120 -151z" horiz-adv-x="500" unicode="`"/><glyph d="M390 0v56q-56 -70 -142 -70q-91 0 -152 66.5t-61 164.5q0 97 61 163.5t150 66.5q84 0 144 -70v56h121v-433h-121zM160 217q0 -50 36 -86t86 -36q49 0 85 35.5t36 84.5q0 52 -35.5 87.5t-85.5 35.5t-86 -35.5t-36 -85.5z" horiz-adv-x="569" unicode="a"/><glyph d="M58 0v749h121v-372q61 70 144 70q89 0 150 -66t61 -163q0 -99 -61 -165.5t-152 -66.5q-86 0 -142 70v-56h-121zM166 217q0 -50 36 -86t86 -36q49 0 85 35.5t36 84.5q0 52 -35.5 87.5t-85.5 35.5t-86 -35.5t-36 -85.5z" horiz-adv-x="569" unicode="b"/><glyph d="M383 131v-118q-55 -27 -112 -27q-100 0 -168 66t-68 162q0 99 68.5 166t169.5 67q59 0 110 -26v-120q-48 37 -98 37q-54 0 -89.5 -34.5t-35.5 -87.5q0 -52 35.5 -86.5t89.5 -34.5q52 0 98 36z" horiz-adv-x="417" unicode="c"/><glyph d="M390 0v56q-56 -70 -142 -70q-91 0 -152 66.5t-61 164.5q0 97 61 163.5t150 66.5q84 0 144 -70v372h121v-749h-121zM160 217q0 -50 36 -86t86 -36q49 0 85 35.5t36 84.5q0 52 -35.5 87.5t-85.5 35.5t-86 -35.5t-36 -85.5z" horiz-adv-x="569" unicode="d"/><glyph d="M368 139l112 -18q-55 -135 -212 -135q-106 0 -169.5 63t-63.5 167q0 105 62 168t165 63t162.5 -62.5t59.5 -171.5v-16h-325q5 -116 106 -116q63 0 103 58zM163 274h205q-20 86 -103 86q-40 0 -67 -23t-35 -63z" horiz-adv-x="518" unicode="e"/><glyph d="M62 0v328h-47v105h47v139q0 86 40 132q52 57 128 57q32 0 64 -15v-110q-35 16 -55 16q-34 0 -47 -31q-9 -23 -9 -67v-121h111v-105h-111v-328h-121z" horiz-adv-x="293" unicode="f"/><glyph d="M46 -51h132q18 -78 102 -78q49 0 81 32q27 27 27 90v65q-34 -39 -67.5 -55.5t-79.5 -16.5q-89 0 -147.5 63.5t-58.5 161.5q0 102 60 169t152 67q84 0 141 -70v56h121v-417q0 -66 -10.5 -102.5t-38.5 -69.5q-65 -76 -182 -76q-131 0 -199 95q-28 40 -33 86zM160 217 q0 -50 36 -86t86 -36q49 0 85 35.5t36 84.5q0 52 -35.5 87.5t-85.5 35.5t-86 -35.5t-36 -85.5z" unicode="g"/><glyph d="M58 0v749h121v-372q53 70 136 70q81 0 126 -53q34 -41 34 -122v-272h-121v237q0 52 -12 72q-20 35 -71 35q-92 0 -92 -122v-222h-121z" horiz-adv-x="533" unicode="h"/><glyph d="M117 543q-30 0 -51.5 21.5t-21.5 52.5q0 29 21.5 50.5t51.5 21.5t51.5 -21.5t21.5 -51.5t-21.5 -51.5t-51.5 -21.5zM56 0v433h121v-433h-121z" horiz-adv-x="233" unicode="i"/><glyph d="M117 543q-30 0 -51.5 21.5t-21.5 52.5q0 29 21.5 50.5t51.5 21.5t51.5 -21.5t21.5 -51.5t-21.5 -51.5t-51.5 -21.5zM56 -231v664h121v-664h-121z" horiz-adv-x="233" unicode="j"/><glyph d="M58 0v749h121v-474l162 158h164l-203 -190l219 -243h-167l-162 186l-13 -13v-173h-121z" horiz-adv-x="517" unicode="k"/><glyph d="M58 0v749h121v-749h-121z" horiz-adv-x="237" unicode="l"/><glyph d="M58 0v433h121v-50q57 64 132 64q88 0 135 -79q51 79 142 79q83 0 121 -62q23 -37 23 -105v-280h-121v237q0 47 -10 69q-17 38 -61 38q-50 0 -71 -43q-13 -27 -13 -79v-222h-121v230q0 51 -9 72q-7 19 -25.5 30.5t-39.5 11.5q-20 0 -39.5 -11t-28.5 -28q-14 -25 -14 -83 v-222h-121z" horiz-adv-x="790" unicode="m"/><glyph d="M58 0v433h121v-54q28 37 60 52.5t76 15.5q80 0 126 -52q34 -39 34 -120v-275h-121v240q0 50 -12 70q-19 34 -71 34q-92 0 -92 -120v-224h-121z" horiz-adv-x="533" unicode="n"/><glyph d="M35 220q0 99 70 163t179 64t177.5 -64.5t68.5 -165.5q0 -103 -69.5 -167t-180.5 -64q-109 0 -177 65t-68 169zM160 218q0 -52 36 -87.5t87 -35.5q50 0 86 35.5t36 85.5q0 51 -36 86.5t-87 35.5q-50 0 -86 -35.5t-36 -84.5z" horiz-adv-x="565" unicode="o"/><glyph d="M179 56v-287h-121v664h121v-56q56 70 142 70q91 0 152 -66t61 -165q0 -97 -61 -163.5t-150 -66.5q-83 0 -144 70zM166 217q0 -50 36 -86t86 -36q49 0 85 35.5t36 84.5q0 52 -35.5 87.5t-85.5 35.5t-86 -35.5t-36 -85.5z" horiz-adv-x="569" unicode="p"/><glyph d="M390 -231v287q-60 -70 -144 -70q-89 0 -150 66.5t-61 163.5q0 99 61 165t152 66q86 0 142 -70v56h121v-664h-121zM160 217q0 -50 36 -86t86 -36q49 0 85 35.5t36 84.5q0 52 -35.5 87.5t-85.5 35.5t-86 -35.5t-36 -85.5z" horiz-adv-x="569" unicode="q"/><glyph d="M58 0v433h121v-66q45 80 126 80q26 0 53 -11l-17 -113q-27 15 -58 15q-49 0 -77 -31q-27 -31 -27 -99v-208h-121z" horiz-adv-x="360" unicode="r"/><glyph d="M31 58l63 74q51 -51 103 -51q23 0 39 14t16 34q0 19 -12.5 29t-54.5 25q-64 24 -83 38q-43 30 -43 90q0 61 43.5 99.5t111.5 38.5q79 0 141 -46l-60 -71q-38 28 -72 28q-20 0 -33.5 -10.5t-13.5 -26.5q0 -14 14 -24t55 -24q56 -19 84 -39q48 -34 48 -95q0 -68 -51 -111.5 t-131 -43.5q-98 0 -164 72z" horiz-adv-x="405" unicode="s"/><glyph d="M59 0v328h-48v105h48v148h121v-148h86v-105h-86v-328h-121z" horiz-adv-x="270" unicode="t"/><glyph d="M58 168v265h121v-245q0 -99 89 -99q88 0 88 99v245h121v-265q0 -88 -54 -135t-155 -47t-155.5 47t-54.5 135z" horiz-adv-x="535" unicode="u"/><glyph d="M222 -9l-221 442h136l114 -245l113 245h136l-223 -442h-55z" horiz-adv-x="502" unicode="v"/><glyph d="M223 -9l-222 442h136l114 -250l118 262h52l118 -266l116 254h135l-224 -442h-55l-117 263l-115 -263h-56z" horiz-adv-x="792" unicode="w"/><glyph d="M1 0l206 235l-167 198h153l90 -112l91 112h154l-170 -198l203 -235h-155l-124 151l-125 -151h-156z" horiz-adv-x="562" unicode="x"/><glyph d="M206 66l-205 367h141l130 -246l123 246h139l-350 -664h-137z" horiz-adv-x="535" unicode="y"/><glyph d="M13 0l246 330h-208v105h421l-245 -330h229v-105h-443z" horiz-adv-x="485" unicode="z"/><glyph d="M84 -26v211q0 23 -15.5 40t-40.5 23v98q30 7 43 25.5t13 55.5v186q0 78 28 111t95 33h64v-104h-12q-37 0 -49.5 -13.5t-12.5 -65.5v-162q0 -49 -12.5 -73.5t-47.5 -45.5q60 -35 60 -94v-186q0 -52 12.5 -65.5t49.5 -13.5h12v-104h-64q-67 0 -95 33t-28 111z" horiz-adv-x="316" unicode="{"/><glyph d="M185 -167v834h130v-834h-130z" horiz-adv-x="500" unicode="|"/><glyph d="M45 -66h12q37 0 49.5 13.5t12.5 65.5v186q0 59 60 94q-35 21 -47.5 45.5t-12.5 73.5v162q0 52 -12.5 65.5t-49.5 13.5h-12v104h64q67 0 95 -33t28 -111v-186q0 -37 13 -55.5t43 -25.5v-98q-25 -6 -40.5 -23t-15.5 -40v-211q0 -78 -28 -111t-95 -33h-64v104z" horiz-adv-x="316" unicode="}"/><glyph d="M161 560l-71 47l8 17q31 71 62.5 96.5t81.5 25.5q31 0 103 -26q65 -24 87 -24q24 0 39 11t32 41l74 -43q-23 -47 -38 -69t-36 -37q-38 -28 -85 -28q-25 0 -103 28q-61 22 -81 22q-24 0 -38 -10.5t-35 -50.5z" horiz-adv-x="667" unicode="~"/><glyph d="M126 363q-33 0 -56 23.5t-23 56.5q0 31 23 54t55 23q33 0 56 -23t23 -55t-23 -55.5t-55 -23.5zM63 -160v475h125v-475h-125z" horiz-adv-x="250" unicode="¡"/><glyph d="M301 25v82q-90 11 -147 74.5t-57 152.5q0 62 28.5 113.5t80.5 83.5q37 23 95 32v76h63v-79q44 -4 79 -20v-124q-45 44 -95 44q-52 0 -86.5 -36t-34.5 -91q0 -53 34 -88.5t85 -35.5q58 0 97 45v-125q-42 -16 -79 -20v-84h-63z" unicode="¢"/><glyph d="M18 8q25 65 60 96t85 34q11 28 11 53q0 20 -7 45h-118v91h64q-39 71 -39 135q0 92 70.5 156t177.5 64q104 0 162.5 -60.5t60.5 -171.5l-131 -14q3 24 3 29q0 44 -29.5 73t-74.5 29q-46 0 -77 -32t-31 -80q0 -45 36 -117l5 -11h149v-91h-120q3 -27 3 -38q0 -34 -12 -68 l68 -22q54 -18 77 -18q42 0 60 53l88 -19q-21 -74 -57 -106.5t-96 -32.5q-38 0 -117 26q-79 25 -109 25q-49 0 -68 -45z" unicode="£"/><glyph d="M90 67l-70 70l103 103q-44 63 -44 138q0 72 44 137l-104 104l71 71l104 -104q67 44 140 44q71 0 137 -43l103 102l70 -70l-102 -102q45 -73 45 -140q0 -69 -43 -136l103 -103l-70 -71l-103 103q-65 -45 -142 -45q-68 0 -139 44zM333 241q56 0 96 40t40 97q0 56 -39.5 96 t-94.5 40q-58 0 -98 -39.5t-40 -97.5q0 -56 40 -96t96 -40z" horiz-adv-x="667" unicode="¤"/><glyph d="M60 209v91h161l-34 63h-127v91h73l-126 213h143l133 -232l132 232h144l-128 -213h75v-91h-130l-35 -63h165v-91h-165v-209h-120v209h-161z" unicode="¥"/><glyph d="M185 320v347h130v-347h-130zM185 153h130v-320h-130v320z" horiz-adv-x="500" unicode="¦"/><glyph d="M87 20h123q1 -41 20 -64t53 -23q30 0 51 21.5t21 52.5q0 36 -29 59q-21 15 -78 35q-55 19 -81 32.5t-46 34.5q-48 48 -48 127q0 63 30.5 107t83.5 58q-89 39 -89 135q0 73 50 117.5t131 44.5q57 0 103 -22t68 -60q20 -35 23 -98h-121q-6 81 -70 81q-28 0 -47.5 -19.5 t-19.5 -46.5t20.5 -44t85.5 -45q58 -25 83 -39.5t45 -35.5q45 -47 45 -116q0 -116 -117 -172q91 -42 91 -135q0 -75 -54 -125t-136 -50q-109 0 -161 80q-27 42 -30 110zM282 212q35 0 59.5 25.5t24.5 61.5q0 35 -24.5 61t-57.5 26q-36 0 -60.5 -25.5t-24.5 -61.5t24.5 -61.5 t58.5 -25.5z" unicode="§"/><glyph d="M353 514q-30 0 -51 21.5t-21 51.5q0 29 21.5 50t50.5 21q30 0 51 -21t21 -51q0 -29 -21.5 -50.5t-50.5 -21.5zM146 514q-30 0 -51 21.5t-21 51.5q0 29 21.5 50t50.5 21q30 0 51 -21t21 -51q0 -29 -21.5 -50.5t-50.5 -21.5z" horiz-adv-x="500" unicode="¨"/><glyph d="M33 333q0 146 102 247.5t250 101.5q140 0 240.5 -103t100.5 -246q0 -144 -101.5 -246t-244.5 -102t-245 102.5t-102 245.5zM102 333q0 -118 81.5 -202t196.5 -84q114 0 195 84t81 202q0 117 -80.5 201.5t-191.5 84.5q-118 0 -200 -83t-82 -203zM511 258v-109 q-59 -25 -108 -25q-93 0 -157.5 60t-64.5 147q0 88 65 149.5t158 61.5q51 0 107 -26v-109q-53 53 -108 53q-53 0 -89.5 -37t-36.5 -92q0 -53 36.5 -89t91.5 -36q60 0 106 52z" horiz-adv-x="760" unicode="©"/><glyph d="M233 400v34q-33 -43 -85 -43q-54 0 -90.5 40t-36.5 99q0 58 36.5 97.5t89.5 39.5q50 0 86 -42v34h72v-259h-72zM168 456q29 0 50.5 21.5t21.5 50.5q0 31 -21 52.5t-51 21.5q-29 0 -50.5 -21.5t-21.5 -51.5t21.5 -51.5t50.5 -21.5zM31 307v55h273v-55h-273z" horiz-adv-x="339" unicode="ª"/><glyph d="M236 217l156 214l70 -49l-121 -165l122 -161l-71 -51zM196 5l-156 212l156 214l70 -49l-121 -165l122 -161z" horiz-adv-x="513" unicode="«"/><glyph d="M33 150v117h433v-267h-130v150h-303z" horiz-adv-x="500" unicode="¬"/><glyph d="M0 179v101h225v-101h-225z" horiz-adv-x="225" unicode="­"/><glyph d="M33 333q0 146 102 247.5t250 101.5q140 0 240.5 -103t100.5 -246q0 -144 -101.5 -246t-244.5 -102t-245 102.5t-102 245.5zM102 333q0 -118 81.5 -202t196.5 -84q114 0 195 84t81 202q0 117 -80.5 201.5t-191.5 84.5q-118 0 -200 -83t-82 -203zM235 133v400h127 q73 0 113 -31.5t40 -89.5q0 -44 -23 -73.5t-66 -40.5l132 -165h-117l-112 155v-155h-94zM329 355h17q73 0 73 52t-72 52h-18v-104z" horiz-adv-x="760" unicode="®"/><glyph d="M90 551v80h320v-80h-320z" horiz-adv-x="500" unicode="¯"/><glyph d="M284 414q-56 0 -95 39.5t-39 95.5q0 53 39.5 92t93.5 39q56 0 95 -39t39 -94t-39 -94t-94 -39zM284 481q27 0 46.5 19.5t19.5 46.5t-19.5 46.5t-47.5 19.5q-27 0 -46.5 -19.5t-19.5 -45.5q0 -28 19.5 -47.5t47.5 -19.5z" unicode="°"/><glyph d="M243 117v176h-183v80h183v184h80v-184h184v-80h-184v-176h-80zM60 -20v80h447v-80h-447z" unicode="±"/><glyph d="M28 267l121 137q88 99 88 144q0 24 -17 41.5t-40 17.5t-38 -17.5t-15 -44.5v-7h-89q5 66 42.5 104t99.5 38q61 0 101.5 -38t40.5 -94q0 -65 -72 -141l-63 -67h138v-73h-297z" horiz-adv-x="387" unicode="²"/><glyph d="M131 557h-79q17 121 134 121q55 0 89.5 -31.5t34.5 -81.5q0 -55 -42 -85q57 -25 57 -98q0 -56 -40 -92t-103 -36q-61 0 -102 36.5t-44 94.5h84q6 -58 63 -58q26 0 43.5 17t17.5 43t-17 43.5t-42 16.5l-19 -1v63q5 -1 14 -1q23 0 37 13.5t14 36.5q0 21 -14 35t-36 14 q-43 0 -50 -50z" horiz-adv-x="387" unicode="³"/><glyph d="M258 509l-58 40l119 151l89 -56z" horiz-adv-x="500" unicode="´"/><glyph d="M169 5l10 -236h-121v664h121v-247q0 -97 89 -97q88 0 88 99v245h121v-266q0 -81 -46 -126q-57 -55 -159 -55q-56 0 -103 19z" horiz-adv-x="535" unicode="µ"/><glyph d="M167 -92v430h-11q-67 0 -108 44.5t-41 116.5q0 168 201 168h335v-113h-73v-646h-110v646h-83v-646h-110z" unicode="¶"/><glyph d="M126 145q-33 0 -56 23t-23 56q0 32 23 55t55 23q33 0 56 -23t23 -55q0 -33 -23 -56t-55 -23z" horiz-adv-x="250" unicode="·"/><glyph d="M175 -178l98 133l78 -43l-115 -125z" horiz-adv-x="500" unicode="¸"/><glyph d="M155 267v327h-58v73h142v-400h-84z" horiz-adv-x="387" unicode="¹"/><glyph d="M167 391q-65 0 -105.5 39t-40.5 102q0 59 42 97.5t106 38.5q65 0 106 -38.5t41 -99.5q0 -62 -41.5 -100.5t-107.5 -38.5zM169 457q29 0 50.5 21.5t21.5 51.5t-21.5 51t-51.5 21q-29 0 -50.5 -21.5t-21.5 -50.5q0 -30 21 -51.5t52 -21.5zM36 307v55h274v-55h-274z" horiz-adv-x="337" unicode="º"/><glyph d="M246 56l122 161l-121 165l70 49l156 -214l-156 -212zM50 56l123 161l-122 165l70 49l156 -214l-156 -212z" horiz-adv-x="513" unicode="»"/><glyph d="M224 3l397 686l53 -30l-397 -687zM150 267v327h-58v73h142v-400h-84zM556 69v37l198 301h74v-269h47v-69h-47v-69h-78v69h-194zM658 138h92v142z" horiz-adv-x="909" unicode="¼"/><glyph d="M224 3l397 686l53 -30l-397 -687zM150 267v327h-58v73h142v-400h-84zM540 0l121 137q88 99 88 143q0 24 -17 41.5t-40 17.5t-38 -17t-15 -44v-7h-89q5 65 43 103t99 38t101.5 -37.5t40.5 -93.5q0 -65 -72 -141l-63 -67h138v-73h-297z" horiz-adv-x="892" unicode="½"/><glyph d="M221 3l397 686l53 -30l-397 -687zM125 557h-79q17 121 134 121q55 0 89.5 -31.5t34.5 -81.5q0 -55 -42 -85q57 -25 57 -98q0 -56 -40 -92t-103 -36q-61 0 -102 36.5t-44 94.5h84q6 -58 63 -58q26 0 43.5 17t17.5 43t-17 43.5t-42 16.5l-19 -1v63q5 -1 14 -1q23 0 37 13.5 t14 36.5q0 21 -14 35t-36 14q-43 0 -50 -50zM553 69v37l198 301h74v-269h47v-69h-47v-69h-78v69h-194zM655 138h92v142z" horiz-adv-x="906" unicode="¾"/><glyph d="M266 363q-33 0 -56 23t-23 55q0 33 23 56t55 23q33 0 56 -23t23 -56q0 -32 -23 -55t-55 -23zM315 18h129q1 -6 1 -13q0 -74 -59.5 -126t-144.5 -52q-84 0 -142.5 54.5t-58.5 133.5q0 68 43.5 116.5t121.5 67.5v85h123v-176q-23 4 -35 4q-55 0 -90 -28t-35 -72 q0 -33 22 -55t55 -22q30 0 50.5 20.5t20.5 50.5q0 7 -1 12z" horiz-adv-x="489" unicode="¿"/><glyph d="M345 728l-167 114l83 68l137 -133zM1 0l289 681h98l280 -681h-139l-57 141h-273l-60 -141h-138zM241 246h190l-93 240z" horiz-adv-x="670" unicode="À"/><glyph d="M341 728l-53 49l137 133l83 -68zM1 0l289 681h98l280 -681h-139l-57 141h-273l-60 -141h-138zM241 246h190l-93 240z" horiz-adv-x="670" unicode="Á"/><glyph d="M234 728l-60 60l169 138l172 -138l-62 -60l-110 90zM1 0l289 681h98l280 -681h-139l-57 141h-273l-60 -141h-138zM241 246h190l-93 240z" horiz-adv-x="670" unicode="Â"/><glyph d="M170 742q8 58 37 92t70 34q26 0 80 -20q48 -18 63 -18q14 0 23 7.5t21 29.5h69q-12 -60 -43 -93.5t-75 -33.5q-22 0 -70 19q-47 19 -66 19q-27 0 -41 -36h-68zM1 0l289 681h98l280 -681h-139l-57 141h-273l-60 -141h-138zM241 246h190l-93 240z" horiz-adv-x="670" unicode="Ã"/><glyph d="M447 740q-30 0 -51 21.5t-21 51.5q0 29 21.5 50t50.5 21q30 0 51 -21t21 -51q0 -29 -21 -50.5t-51 -21.5zM236 740q-30 0 -51 21.5t-21 51.5q0 29 21.5 50t50.5 21q30 0 51 -21t21 -51q0 -29 -21 -50.5t-51 -21.5zM1 0l289 681h98l280 -681h-139l-57 141h-273l-60 -141 h-138zM241 246h190l-93 240z" horiz-adv-x="670" unicode="Ä"/><glyph d="M338 732q-40 0 -67.5 28t-27.5 68q0 38 28 65.5t66 27.5q40 0 67.5 -27.5t27.5 -66.5t-27.5 -67t-66.5 -28zM338 789q15 0 26 11t11 27q0 15 -11 26t-26 11q-16 0 -27 -11t-11 -26q0 -16 11 -27t27 -11zM1 0l289 681h98l280 -681h-139l-57 141h-273l-60 -141h-138z M241 246h190l-93 240z" horiz-adv-x="670" unicode="Å"/><glyph d="M7 0l287 667h352l44 -113h-245l60 -149h242l45 -113h-242l74 -179h246l43 -113h-381l-57 141h-272l-58 -141h-138zM246 246h189l-92 227z" horiz-adv-x="920" unicode="Æ"/><glyph d="M558 177v-153q-94 -39 -165 -39q-146 0 -248 100.5t-102 243.5q0 146 102.5 248.5t250.5 102.5q81 0 162 -39v-153q-70 73 -163 73q-92 0 -155 -66.5t-63 -164.5q0 -95 63 -160.5t154 -65.5t164 73zM258 -181l101 139l84 -51l-121 -128z" horiz-adv-x="602" unicode="Ç"/><glyph d="M278 728l-167 114l83 68l137 -133zM77 0v667h369v-113h-239v-148h230v-113h-230v-180h239v-113h-369z" horiz-adv-x="495" unicode="È"/><glyph d="M264 728l-53 49l137 133l83 -68zM77 0v667h369v-113h-239v-148h230v-113h-230v-180h239v-113h-369z" horiz-adv-x="495" unicode="É"/><glyph d="M154 728l-60 60l169 138l172 -138l-62 -60l-110 90zM77 0v667h369v-113h-239v-148h230v-113h-230v-180h239v-113h-369z" horiz-adv-x="495" unicode="Ê"/><glyph d="M367 740q-30 0 -51 21.5t-21 51.5q0 29 21.5 50t50.5 21q30 0 51 -21t21 -51q0 -29 -21 -50.5t-51 -21.5zM156 740q-30 0 -51 21.5t-21 51.5q0 29 21.5 50t50.5 21q30 0 51 -21t21 -51q0 -29 -21 -50.5t-51 -21.5zM77 0v667h369v-113h-239v-148h230v-113h-230v-180h239 v-113h-369z" horiz-adv-x="495" unicode="Ë"/><glyph d="M148 728l-167 114l83 68l137 -133zM76 0v667h130v-667h-130z" horiz-adv-x="283" unicode="Ì"/><glyph d="M142 728l-53 49l137 133l83 -68zM77 0v667h130v-667h-130z" horiz-adv-x="283" unicode="Í"/><glyph d="M48 728l-60 60l156 138l158 -138l-62 -60l-96 90zM77 0v667h130v-667h-130z" horiz-adv-x="283" unicode="Î"/><glyph d="M233 740q-30 0 -51 21.5t-21 51.5q0 29 21.5 50t50.5 21q30 0 51 -21t21 -51q0 -29 -21 -50.5t-51 -21.5zM56 740q-30 0 -51 21.5t-21 51.5q0 29 21.5 50t50.5 21q30 0 51 -21t21 -51q0 -29 -21 -50.5t-51 -21.5zM76 0v667h130v-667h-130z" horiz-adv-x="283" unicode="Ï"/><glyph d="M77 0v283h-56v100h56v284h191q146 0 239 -77q56 -46 87.5 -114t31.5 -142q0 -75 -32 -142.5t-89 -114.5q-93 -77 -238 -77h-190zM207 113h35q119 0 178 53q72 64 72 167t-72 167q-32 29 -73 41.5t-105 12.5h-35v-171h142v-100h-142v-170z" horiz-adv-x="669" unicode="Ð"/><glyph d="M235 742q8 58 37 92t70 34q26 0 80 -20q48 -18 63 -18q14 0 23 7.5t21 29.5h69q-12 -60 -43 -93.5t-75 -33.5q-22 0 -70 19t-66 19q-27 0 -41 -36h-68zM77 0v682h90l406 -464v449h130v-680h-90l-406 464v-451h-130z" horiz-adv-x="779" unicode="Ñ"/><glyph d="M406 728l-167 114l83 68l137 -133zM43 338q0 143 105 243.5t253 100.5q149 0 252 -101t103 -248t-104 -247.5t-256 -100.5q-150 0 -251.5 101.5t-101.5 251.5zM177 336q0 -97 65 -164.5t158 -67.5q92 0 157 67.5t65 162.5t-65.5 162t-157.5 67q-91 0 -156.5 -67 t-65.5 -160z" horiz-adv-x="799" unicode="Ò"/><glyph d="M402 728l-53 49l137 133l83 -68zM43 338q0 143 105 243.5t253 100.5q149 0 252 -101t103 -248t-104 -247.5t-256 -100.5q-150 0 -251.5 101.5t-101.5 251.5zM177 336q0 -97 65 -164.5t158 -67.5q92 0 157 67.5t65 162.5t-65.5 162t-157.5 67q-91 0 -156.5 -67t-65.5 -160 z" horiz-adv-x="799" unicode="Ó"/><glyph d="M296 728l-60 60l169 138l172 -138l-62 -60l-110 90zM43 338q0 143 105 243.5t253 100.5q149 0 252 -101t103 -248t-104 -247.5t-256 -100.5q-150 0 -251.5 101.5t-101.5 251.5zM177 336q0 -97 65 -164.5t158 -67.5q92 0 157 67.5t65 162.5t-65.5 162t-157.5 67 q-91 0 -156.5 -67t-65.5 -160z" horiz-adv-x="799" unicode="Ô"/><glyph d="M235 742q8 58 37 92t70 34q26 0 80 -20q48 -18 63 -18q14 0 23 7.5t21 29.5h69q-12 -60 -43 -93.5t-75 -33.5q-22 0 -70 19t-66 19q-27 0 -41 -36h-68zM43 338q0 143 105 243.5t253 100.5q149 0 252 -101t103 -248t-104 -247.5t-256 -100.5q-150 0 -251.5 101.5 t-101.5 251.5zM177 336q0 -97 65 -164.5t158 -67.5q92 0 157 67.5t65 162.5t-65.5 162t-157.5 67q-91 0 -156.5 -67t-65.5 -160z" horiz-adv-x="799" unicode="Õ"/><glyph d="M508 740q-30 0 -51 21.5t-21 51.5q0 29 21.5 50t50.5 21q30 0 51 -21t21 -51q0 -29 -21 -50.5t-51 -21.5zM297 740q-30 0 -51 21.5t-21 51.5q0 29 21.5 50t50.5 21q30 0 51 -21t21 -51q0 -29 -21 -50.5t-51 -21.5zM43 338q0 143 105 243.5t253 100.5q149 0 252 -101 t103 -248t-104 -247.5t-256 -100.5q-150 0 -251.5 101.5t-101.5 251.5zM177 336q0 -97 65 -164.5t158 -67.5q92 0 157 67.5t65 162.5t-65.5 162t-157.5 67q-91 0 -156.5 -67t-65.5 -160z" horiz-adv-x="799" unicode="Ö"/><glyph d="M145 138l-57 56l139 139l-139 139l57 57l139 -139l139 139l56 -57l-139 -139l139 -139l-56 -56l-139 139z" unicode="×"/><glyph d="M70 9l67 86q-27 34 -39 52q-52 84 -52 186q0 147 103.5 248t254.5 101q97 0 183 -48l76 91l74 -62l-73 -89q32 -39 44 -59q51 -83 51 -182q0 -143 -102.5 -245.5t-244.5 -102.5q-127 0 -199 48l-74 -87zM224 197l282 341q-53 25 -103 25q-92 0 -157.5 -67t-65.5 -161 q0 -81 44 -138zM293 132q57 -28 108 -28q93 0 158.5 67t65.5 162q0 78 -45 138z" horiz-adv-x="805" unicode="Ø"/><glyph d="M355 728l-167 114l83 68l137 -133zM613 667v-408q0 -113 -49 -178q-35 -45 -93 -70.5t-126 -25.5t-126.5 25.5t-92.5 70.5q-49 65 -49 178v408h130v-382q0 -51 4 -74t17 -45q17 -29 48.5 -45.5t68.5 -16.5t68.5 16.5t48.5 45.5q13 22 17 45t4 74v382h130z" horiz-adv-x="689" unicode="Ù"/><glyph d="M351 728l-53 49l137 133l83 -68zM613 667v-408q0 -113 -49 -178q-35 -45 -93 -70.5t-126 -25.5t-126.5 25.5t-92.5 70.5q-49 65 -49 178v408h130v-382q0 -51 4 -74t17 -45q17 -29 48.5 -45.5t68.5 -16.5t68.5 16.5t48.5 45.5q13 22 17 45t4 74v382h130z" horiz-adv-x="689" unicode="Ú"/><glyph d="M238 728l-60 60l169 138l172 -138l-62 -60l-110 90zM613 667v-408q0 -113 -49 -178q-35 -45 -93 -70.5t-126 -25.5t-126.5 25.5t-92.5 70.5q-49 65 -49 178v408h130v-382q0 -51 4 -74t17 -45q17 -29 48.5 -45.5t68.5 -16.5t68.5 16.5t48.5 45.5q13 22 17 45t4 74v382h130 z" horiz-adv-x="689" unicode="Û"/><glyph d="M454 740q-30 0 -51 21.5t-21 51.5q0 29 21.5 50t50.5 21q30 0 51 -21t21 -51q0 -29 -21 -50.5t-51 -21.5zM243 740q-30 0 -51 21.5t-21 51.5q0 29 21.5 50t50.5 21q30 0 51 -21t21 -51q0 -29 -21 -50.5t-51 -21.5zM613 667v-408q0 -113 -49 -178q-35 -45 -93 -70.5 t-126 -25.5t-126.5 25.5t-92.5 70.5q-49 65 -49 178v408h130v-382q0 -51 4 -74t17 -45q17 -29 48.5 -45.5t68.5 -16.5t68.5 16.5t48.5 45.5q13 22 17 45t4 74v382h130z" horiz-adv-x="689" unicode="Ü"/><glyph d="M292 728l-53 49l137 133l83 -68zM225 0v306l-230 361h154l144 -232l141 232h155l-234 -361v-306h-130z" horiz-adv-x="583" unicode="Ý"/><glyph d="M77 0v667h130v-94h58q96 0 149 -27q49 -25 76 -74t27 -110q0 -57 -24 -105t-65 -75q-50 -33 -138 -33h-83v-149h-130zM207 270h49q62 0 87 22q29 24 29 70q0 91 -117 91h-48v-183z" horiz-adv-x="537" unicode="Þ"/><glyph d="M58 0v545q0 100 48 154q57 62 164 62q93 0 150.5 -54t57.5 -141q0 -85 -81 -142q50 -21 76 -47q59 -59 59 -154q0 -84 -46.5 -146t-123.5 -81q-44 -10 -105 -10v109q56 1 93 26q57 40 57 109q0 76 -63 112q-33 18 -87 21v105q42 1 67 18q37 27 37 77q0 39 -25.5 64 t-65.5 25q-29 0 -51.5 -14t-29.5 -38q-10 -29 -10 -107v-493h-121z" horiz-adv-x="566" unicode="ß"/><glyph d="M291 509l-150 135l88 56l120 -151zM390 0v56q-56 -70 -142 -70q-91 0 -152 66.5t-61 164.5q0 97 61 163.5t150 66.5q84 0 144 -70v56h121v-433h-121zM160 217q0 -50 36 -86t86 -36q49 0 85 35.5t36 84.5q0 52 -35.5 87.5t-85.5 35.5t-86 -35.5t-36 -85.5z" horiz-adv-x="569" unicode="à"/><glyph d="M299 509l-58 40l119 151l89 -56zM390 0v56q-56 -70 -142 -70q-91 0 -152 66.5t-61 164.5q0 97 61 163.5t150 66.5q84 0 144 -70v56h121v-433h-121zM160 217q0 -50 36 -86t86 -36q49 0 85 35.5t36 84.5q0 52 -35.5 87.5t-85.5 35.5t-86 -35.5t-36 -85.5z" horiz-adv-x="569" unicode="á"/><glyph d="M178 509l-60 60l169 138l172 -138l-62 -60l-110 92zM390 0v56q-56 -70 -142 -70q-91 0 -152 66.5t-61 164.5q0 97 61 163.5t150 66.5q84 0 144 -70v56h121v-433h-121zM160 217q0 -50 36 -86t86 -36q49 0 85 35.5t36 84.5q0 52 -35.5 87.5t-85.5 35.5t-86 -35.5t-36 -85.5 z" horiz-adv-x="569" unicode="â"/><glyph d="M120 523q8 58 37 91.5t70 33.5q26 0 80 -20q46 -18 63 -18q14 0 23 7.5t21 29.5h69q-12 -60 -43 -93t-75 -33q-24 0 -70 18q-51 19 -67 19q-26 0 -40 -35h-68zM390 0v56q-56 -70 -142 -70q-91 0 -152 66.5t-61 164.5q0 97 61 163.5t150 66.5q84 0 144 -70v56h121v-433 h-121zM160 217q0 -50 36 -86t86 -36q49 0 85 35.5t36 84.5q0 52 -35.5 87.5t-85.5 35.5t-86 -35.5t-36 -85.5z" horiz-adv-x="569" unicode="ã"/><glyph d="M395 514q-30 0 -51 21.5t-21 51.5q0 29 21.5 50t50.5 21q30 0 51 -21t21 -51q0 -29 -21.5 -50.5t-50.5 -21.5zM188 514q-30 0 -51 21.5t-21 51.5q0 29 21.5 50t50.5 21q30 0 51 -21t21 -51q0 -29 -21.5 -50.5t-50.5 -21.5zM390 0v56q-56 -70 -142 -70q-91 0 -152 66.5 t-61 164.5q0 97 61 163.5t150 66.5q84 0 144 -70v56h121v-433h-121zM160 217q0 -50 36 -86t86 -36q49 0 85 35.5t36 84.5q0 52 -35.5 87.5t-85.5 35.5t-86 -35.5t-36 -85.5z" horiz-adv-x="569" unicode="ä"/><glyph d="M290 509q-38 0 -65 27t-27 66q0 37 27.5 64t64.5 27q38 0 65 -27t27 -65t-27 -65t-65 -27zM290 566q14 0 24.5 10.5t10.5 24.5t-10.5 24.5t-24.5 10.5t-24.5 -10.5t-10.5 -24.5t10.5 -24.5t24.5 -10.5zM390 0v56q-56 -70 -142 -70q-91 0 -152 66.5t-61 164.5 q0 97 61 163.5t150 66.5q84 0 144 -70v56h121v-433h-121zM160 217q0 -50 36 -86t86 -36q49 0 85 35.5t36 84.5q0 52 -35.5 87.5t-85.5 35.5t-86 -35.5t-36 -85.5z" horiz-adv-x="569" unicode="å"/><glyph d="M655 139l113 -18q-26 -65 -81.5 -100t-131.5 -35q-112 0 -169 82q-63 -82 -173 -82q-80 0 -129 39t-49 102q0 65 47.5 104.5t126.5 39.5q65 0 120 -31q1 8 1 22q0 43 -29 66.5t-81 23.5q-58 0 -119 -18v97q65 16 124 16q113 0 161 -74q57 74 164 74q67 0 120.5 -31 t78.5 -84q24 -50 24 -120v-15h-327q3 -55 32.5 -86t78.5 -31q70 0 98 59zM450 274h206q-22 86 -103 86q-78 0 -103 -86zM152 133q0 -26 24 -43t61 -17q39 0 65.5 18t26.5 44q0 22 -26 36t-66 14q-39 0 -62 -14t-23 -38z" horiz-adv-x="807" unicode="æ"/><glyph d="M383 131v-118q-57 -27 -112 -27q-100 0 -168 66t-68 162q0 99 68.5 166t169.5 67q59 0 110 -26v-120q-48 41 -99 41q-53 0 -88.5 -36t-35.5 -90t35.5 -89.5t88.5 -35.5t99 40zM141 -178l98 133l78 -43l-116 -125z" horiz-adv-x="417" unicode="ç"/><glyph d="M266 509l-150 135l88 56l120 -151zM368 139l112 -18q-55 -135 -212 -135q-106 0 -169.5 63t-63.5 167q0 105 62 168t165 63t162.5 -62.5t59.5 -171.5v-16h-325q5 -116 106 -116q63 0 103 58zM163 274h205q-20 86 -103 86q-40 0 -67 -23t-35 -63z" horiz-adv-x="518" unicode="è"/><glyph d="M264 509l-58 40l119 151l89 -56zM368 139l112 -18q-55 -135 -212 -135q-106 0 -169.5 63t-63.5 167q0 105 62 168t165 63t162.5 -62.5t59.5 -171.5v-16h-325q5 -116 106 -116q63 0 103 58zM163 274h205q-20 86 -103 86q-40 0 -67 -23t-35 -63z" horiz-adv-x="518" unicode="é"/><glyph d="M152 509l-60 60l169 138l172 -138l-62 -60l-110 92zM368 139l112 -18q-55 -135 -212 -135q-106 0 -169.5 63t-63.5 167q0 105 62 168t165 63t162.5 -62.5t59.5 -171.5v-16h-325q5 -116 106 -116q63 0 103 58zM163 274h205q-20 86 -103 86q-40 0 -67 -23t-35 -63z" horiz-adv-x="518" unicode="ê"/><glyph d="M366 514q-30 0 -51 21.5t-21 51.5q0 29 21.5 50t50.5 21q30 0 51 -21t21 -51q0 -29 -21.5 -50.5t-50.5 -21.5zM159 514q-30 0 -51 21.5t-21 51.5q0 29 21.5 50t50.5 21q30 0 51 -21t21 -51q0 -29 -21.5 -50.5t-50.5 -21.5zM368 139l112 -18q-55 -135 -212 -135 q-106 0 -169.5 63t-63.5 167q0 105 62 168t165 63t162.5 -62.5t59.5 -171.5v-16h-325q5 -116 106 -116q63 0 103 58zM163 274h205q-20 86 -103 86q-40 0 -67 -23t-35 -63z" horiz-adv-x="518" unicode="ë"/><glyph d="M123 509l-150 135l88 56l120 -151zM56 0v433h121v-433h-121z" horiz-adv-x="234" unicode="ì"/><glyph d="M122 509l-58 40l119 151l89 -56zM57 0v433h121v-433h-121z" horiz-adv-x="234" unicode="í"/><glyph d="M30 509l-60 60l149 138l152 -138l-62 -60l-90 92zM57 0v433h121v-433h-121z" horiz-adv-x="234" unicode="î"/><glyph d="M209 514q-30 0 -51 21.5t-21 51.5q0 29 21.5 50t50.5 21q30 0 51 -21t21 -51q0 -29 -21.5 -50.5t-50.5 -21.5zM32 514q-30 0 -51 21.5t-21 51.5q0 29 21.5 50t50.5 21q30 0 51 -21t21 -51q0 -29 -21.5 -50.5t-50.5 -21.5zM57 0v433h121v-433h-121z" horiz-adv-x="234" unicode="ï"/><glyph d="M408 650l-74 -38q93 -85 144.5 -187t51.5 -201q0 -107 -67 -172.5t-178 -65.5q-110 0 -180 64.5t-70 164.5q0 103 70 167.5t183 64.5q10 0 19 -1q-34 65 -78 115l-93 -47l-39 80l72 37q-20 15 -66 37q-6 4 -21 10l36 72q30 -10 73 -33.5t63 -40.5l113 56zM160 218 q0 -52 36 -87.5t87 -35.5q50 0 86 35.5t36 86.5t-35.5 86t-86.5 35q-50 0 -86.5 -35.5t-36.5 -84.5z" horiz-adv-x="565" unicode="ð"/><glyph d="M102 523q8 58 37 91.5t70 33.5q26 0 80 -20q46 -18 63 -18q14 0 23 7.5t21 29.5h69q-12 -60 -43 -93t-75 -33q-24 0 -70 18q-51 19 -67 19q-26 0 -40 -35h-68zM58 0v433h121v-54q28 37 60 52.5t76 15.5q80 0 126 -52q34 -39 34 -120v-275h-121v240q0 50 -12 70 q-19 34 -71 34q-92 0 -92 -120v-224h-121z" horiz-adv-x="533" unicode="ñ"/><glyph d="M285 509l-150 135l88 56l120 -151zM35 220q0 99 70 163t179 64t177.5 -64.5t68.5 -165.5q0 -103 -69.5 -167t-180.5 -64q-109 0 -177 65t-68 169zM160 218q0 -52 36 -87.5t87 -35.5q50 0 86 35.5t36 85.5q0 51 -36 86.5t-87 35.5q-50 0 -86 -35.5t-36 -84.5z" horiz-adv-x="565" unicode="ò"/><glyph d="M287 509l-58 40l119 151l89 -56zM35 220q0 99 70 163t179 64t177.5 -64.5t68.5 -165.5q0 -103 -69.5 -167t-180.5 -64q-109 0 -177 65t-68 169zM160 218q0 -52 36 -87.5t87 -35.5q50 0 86 35.5t36 85.5q0 51 -36 86.5t-87 35.5q-50 0 -86 -35.5t-36 -84.5z" horiz-adv-x="565" unicode="ó"/><glyph d="M176 509l-60 60l169 138l172 -138l-62 -60l-110 92zM35 220q0 99 70 163t179 64t177.5 -64.5t68.5 -165.5q0 -103 -69.5 -167t-180.5 -64q-109 0 -177 65t-68 169zM160 218q0 -52 36 -87.5t87 -35.5q50 0 86 35.5t36 85.5q0 51 -36 86.5t-87 35.5q-50 0 -86 -35.5 t-36 -84.5z" horiz-adv-x="565" unicode="ô"/><glyph d="M115 523q8 58 37 91.5t70 33.5q26 0 80 -20q46 -18 63 -18q14 0 23 7.5t21 29.5h69q-12 -60 -43 -93t-75 -33q-24 0 -70 18q-51 19 -67 19q-26 0 -40 -35h-68zM35 220q0 99 70 163t179 64t177.5 -64.5t68.5 -165.5q0 -103 -69.5 -167t-180.5 -64q-109 0 -177 65t-68 169z M160 218q0 -52 36 -87.5t87 -35.5q50 0 86 35.5t36 85.5q0 51 -36 86.5t-87 35.5q-50 0 -86 -35.5t-36 -84.5z" horiz-adv-x="565" unicode="õ"/><glyph d="M383 514q-30 0 -51 21.5t-21 51.5q0 29 21.5 50t50.5 21q30 0 51 -21t21 -51q0 -29 -21.5 -50.5t-50.5 -21.5zM176 514q-30 0 -51 21.5t-21 51.5q0 29 21.5 50t50.5 21q30 0 51 -21t21 -51q0 -29 -21.5 -50.5t-50.5 -21.5zM35 220q0 99 70 163t179 64t177.5 -64.5 t68.5 -165.5q0 -103 -69.5 -167t-180.5 -64q-109 0 -177 65t-68 169zM160 218q0 -52 36 -87.5t87 -35.5q50 0 86 35.5t36 85.5q0 51 -36 86.5t-87 35.5q-50 0 -86 -35.5t-36 -84.5z" horiz-adv-x="565" unicode="ö"/><glyph d="M283 439q-25 0 -43 18t-18 44q0 24 18 42t43 18t43 -17.5t18 -43.5q0 -25 -18 -43t-43 -18zM60 293v80h447v-80h-447zM222 168q0 24 18 42t43 18t43 -18t18 -43t-18 -43t-43 -18t-43 18t-18 44z" unicode="÷"/><glyph d="M47 -10l52 63q-64 65 -64 164q0 101 69.5 165.5t177.5 64.5q68 0 125 -27l57 69l56 -46l-54 -64q64 -67 64 -163q0 -101 -69 -165.5t-177 -64.5q-64 0 -126 27l-59 -69zM180 150l150 178q-24 10 -48 10q-50 0 -86 -36t-36 -86q0 -32 20 -66zM235 105q24 -10 47 -10 q51 0 87 35.5t36 85.5q0 33 -20 67z" horiz-adv-x="566" unicode="ø"/><glyph d="M273 509l-150 135l88 56l120 -151zM58 168v265h121v-245q0 -99 89 -99q88 0 88 99v245h121v-265q0 -88 -54 -135t-155 -47t-155.5 47t-54.5 135z" horiz-adv-x="535" unicode="ù"/><glyph d="M278 509l-58 40l119 151l89 -56zM58 168v265h121v-245q0 -99 89 -99q88 0 88 99v245h121v-265q0 -88 -54 -135t-155 -47t-155.5 47t-54.5 135z" horiz-adv-x="535" unicode="ú"/><glyph d="M160 509l-60 60l169 138l172 -138l-62 -60l-110 92zM58 168v265h121v-245q0 -99 89 -99q88 0 88 99v245h121v-265q0 -88 -54 -135t-155 -47t-155.5 47t-54.5 135z" horiz-adv-x="535" unicode="û"/><glyph d="M374 514q-30 0 -51 21.5t-21 51.5q0 29 21.5 50t50.5 21q30 0 51 -21t21 -51q0 -29 -21.5 -50.5t-50.5 -21.5zM167 514q-30 0 -51 21.5t-21 51.5q0 29 21.5 50t50.5 21q30 0 51 -21t21 -51q0 -29 -21.5 -50.5t-50.5 -21.5zM58 168v265h121v-245q0 -99 89 -99q88 0 88 99 v245h121v-265q0 -88 -54 -135t-155 -47t-155.5 47t-54.5 135z" horiz-adv-x="535" unicode="ü"/><glyph d="M278 509l-58 40l119 151l89 -56zM206 66l-205 367h141l130 -246l123 246h139l-350 -664h-137z" horiz-adv-x="535" unicode="ý"/><glyph d="M183 45v-273h-125v957h125v-341q57 60 136 60q92 0 152.5 -65.5t60.5 -165.5q0 -98 -61.5 -164t-152.5 -66q-76 0 -135 58zM178 215q0 -52 30.5 -85.5t77.5 -33.5q49 0 80.5 33.5t31.5 85.5q0 54 -30.5 87.5t-79.5 33.5t-79.5 -34t-30.5 -87z" unicode="þ"/><glyph d="M377 514q-30 0 -51 21.5t-21 51.5q0 29 21.5 50t50.5 21q30 0 51 -21t21 -51q0 -29 -21.5 -50.5t-50.5 -21.5zM170 514q-30 0 -51 21.5t-21 51.5q0 29 21.5 50t50.5 21q30 0 51 -21t21 -51q0 -29 -21.5 -50.5t-50.5 -21.5zM206 66l-205 367h141l130 -246l123 246h139 l-350 -664h-137z" horiz-adv-x="535" unicode="ÿ"/><glyph d="M626 0v90q-93 -105 -232 -105q-147 0 -249 101t-102 246t102 247.5t246 102.5q96 0 167 -45q29 -18 68 -60v90h362v-113h-234v-149h224v-113h-224v-179h234v-113h-362zM177 336q0 -98 61.5 -165t152.5 -67q93 0 157.5 66.5t64.5 162.5q0 94 -65.5 162t-157.5 68 q-87 0 -150 -67t-63 -160z" horiz-adv-x="1037" unicode="Œ"/><glyph d="M731 140l112 -19q-54 -135 -215 -135q-111 0 -171 84q-41 -46 -82 -65t-101 -19q-104 0 -171.5 64.5t-67.5 164.5t68.5 166t172.5 66q111 0 181 -79q59 79 169 79q102 0 162.5 -61.5t60.5 -167.5v-21h-329q4 -55 33 -86t77 -31q66 0 101 60zM524 274h208q-22 86 -103 86 t-105 -86zM160 219q0 -52 33.5 -88t83.5 -36t84.5 35.5t34.5 87.5q0 50 -34 84.5t-84 34.5t-84 -34.5t-34 -83.5z" horiz-adv-x="884" unicode="œ"/><glyph d="M401 740q-30 0 -51 21.5t-21 51.5q0 29 21.5 50t50.5 21q30 0 51 -21t21 -51q0 -29 -21 -50.5t-51 -21.5zM190 740q-30 0 -51 21.5t-21 51.5q0 29 21.5 50t50.5 21q30 0 51 -21t21 -51q0 -29 -21 -50.5t-51 -21.5zM225 0v306l-230 361h154l144 -232l141 232h155 l-234 -361v-306h-130z" horiz-adv-x="583" unicode="Ÿ"/><glyph d="M140 509l-60 60l169 138l172 -138l-62 -60l-110 92z" horiz-adv-x="500" unicode="ˆ"/><glyph d="M69 523q8 58 37 91.5t70 33.5q26 0 80 -20q46 -18 63 -18q14 0 23 7.5t21 29.5h69q-12 -60 -43 -93t-75 -33q-24 0 -70 18q-51 19 -67 19q-26 0 -40 -35h-68z" horiz-adv-x="500" unicode="˜"/><glyph horiz-adv-x="463"/><glyph horiz-adv-x="926"/><glyph horiz-adv-x="463"/><glyph horiz-adv-x="926"/><glyph horiz-adv-x="308"/><glyph horiz-adv-x="231"/><glyph horiz-adv-x="154"/><glyph horiz-adv-x="154"/><glyph horiz-adv-x="115"/><glyph horiz-adv-x="185"/><glyph horiz-adv-x="51"/><glyph d="M0 179v101h225v-101h-225z" horiz-adv-x="225" unicode="‐"/><glyph d="M0 179v101h225v-101h-225z" horiz-adv-x="225" unicode="‑"/><glyph d="M0 179v101h225v-101h-225z" horiz-adv-x="225" unicode="‒"/><glyph d="M75 179v101h416v-101h-416z" unicode="–"/><glyph d="M0 179v101h673v-101h-673z" horiz-adv-x="673" unicode="—"/><glyph d="M43 414l141 266l77 -10l-107 -269z" horiz-adv-x="305" unicode="‘"/><glyph d="M23 411l107 269l111 -13l-141 -266z" horiz-adv-x="291" unicode="’"/><glyph d="M23 -131l107 269l111 -13l-141 -265z" horiz-adv-x="291" unicode="‚"/><glyph d="M231 414l141 266l77 -10l-106 -269zM43 414l141 266l77 -10l-107 -269z" horiz-adv-x="493" unicode="“"/><glyph d="M231 411l107 269l111 -13l-141 -266zM43 411l107 269l111 -13l-141 -266z" horiz-adv-x="493" unicode="”"/><glyph d="M231 -131l107 269l111 -13l-141 -265zM43 -131l107 269l111 -13l-141 -265z" horiz-adv-x="493" unicode="„"/><glyph d="M335 200q-57 0 -98 40.5t-41 97.5q0 58 41 98.5t100 40.5q55 0 95.5 -41t40.5 -97q0 -58 -40.5 -98.5t-97.5 -40.5z" horiz-adv-x="667" unicode="•"/><glyph d="M629 65q0 32 23 55t55 23q33 0 56 -23t23 -55q0 -33 -23 -56t-55 -23q-33 0 -56 23t-23 56zM346 65q0 32 23 55t55 23q33 0 56 -23t23 -55q0 -33 -23 -56t-55 -23q-33 0 -56 23t-23 56zM63 65q0 32 23 55t55 23q33 0 56 -23t23 -55q0 -33 -23 -56t-55 -23q-33 0 -56 23 t-23 56z" horiz-adv-x="849" unicode="…"/><glyph horiz-adv-x="185"/><glyph d="M196 5l-156 212l156 214l70 -49l-121 -165l122 -161z" horiz-adv-x="317" unicode="‹"/><glyph d="M50 56l123 161l-122 165l70 49l156 -214l-156 -212z" horiz-adv-x="317" unicode="›"/><glyph horiz-adv-x="231"/><glyph d="M25 228l36 86h64q-1 6 -1 16q0 16 1 28h-100l36 86h81q37 108 129.5 173t210.5 65q120 0 214 -69l-51 -124q-68 74 -165 74q-61 0 -113.5 -32t-80.5 -87h339l-36 -86h-329q-2 -12 -2 -24t1 -20h311l-36 -86h-250q27 -57 80.5 -90.5t115.5 -33.5q98 0 166 76v-157 q-79 -38 -167 -38q-119 0 -212 67t-127 176h-115z" horiz-adv-x="721" unicode="€"/><glyph d="M260 287l68 387h62l93 -231l98 231h62l61 -387h-85l-29 209l-91 -214h-33l-88 214l-33 -209h-85zM79 287v305h-82v75h249v-75h-82v-305h-85z" horiz-adv-x="721" unicode="™"/><glyph d="M0 435h435v-435h-435v435z" horiz-adv-x="435" unicode="◼"/></font>
</defs>
</svg>
